<?xml version="1.0" encoding="utf-8"?>
<svg version="1.1" id="Layer_1" x="0px" y="0px" width="100%" viewBox="0 0 250 250" enable-background="new 0 0 250 250" xmlns="http://www.w3.org/2000/svg">
  <path fill="#F8F8F8" opacity="1.000000" stroke="none" d=" M39.394455,107.205780 C41.946835,106.147896 44.165459,105.283585 46.366299,104.426201 C43.617298,92.738907 40.850529,80.753807 37.906055,68.812523 C37.621552,67.658707 36.426640,66.436852 35.331390,65.819946 C21.765165,58.178772 20.323650,46.686501 31.232447,35.175793 C42.719204,23.055237 57.223900,16.568830 73.054321,13.176872 C82.564011,11.139245 92.485107,10.137564 102.207497,10.224002 C112.035645,10.311379 121.799957,12.684984 129.654083,19.335133 C133.016724,22.182306 135.707458,25.842442 135.000351,30.789145 C134.440857,34.703148 136.336136,35.908802 139.969284,36.035988 C148.347824,36.329292 156.071793,38.736423 163.089203,43.496635 C171.549850,49.235844 173.726883,58.189373 167.640442,66.469086 C165.237061,69.738510 164.360367,72.211586 166.654388,75.777992 C174.426788,73.339233 182.507965,72.270012 190.117249,77.027748 C197.621887,81.720055 198.876694,90.260567 202.130066,97.223030 C209.591156,95.605240 216.694092,89.698013 224.536575,96.059425 C228.439667,99.225410 232.302795,110.646774 230.744705,114.732292 C227.566986,123.064682 220.424515,124.694626 212.539703,125.170494 C217.719604,139.554138 223.039124,153.879227 228.025711,168.319290 C231.743713,179.085800 227.491150,187.495453 217.028793,190.989685 C215.835007,191.388397 214.637161,191.775009 214.689743,192.619156 C213.098587,199.540726 211.653915,206.502548 209.773102,213.344482 C209.457123,214.493927 207.354080,215.404022 205.897949,215.924026 C204.098785,216.566559 202.094788,216.608093 200.210510,217.044235 C189.803787,219.452988 188.251556,218.817474 181.944122,209.736771 C180.053528,207.014893 177.983887,204.417389 175.423447,200.997910 C151.055008,206.875305 125.645058,213.003906 101.702187,218.778671 C100.953484,223.974899 100.217918,228.350281 99.712006,232.752060 C98.822350,240.492584 94.283997,243.623596 86.804832,244.193756 C83.274506,244.462891 79.551788,247.571350 76.307808,244.644760 C71.238007,240.070969 66.271767,235.199554 64.346596,229.242462 C59.244843,228.504379 53.869865,228.520325 49.081722,226.852020 C41.497013,224.209320 39.873478,217.187180 38.970367,210.037567 C37.033894,194.707123 34.868958,179.404373 33.060448,164.059296 C31.512276,150.923172 30.008476,137.765808 29.110924,124.575233 C28.597294,117.026848 32.640221,111.332161 39.394455,107.205780 M111.450684,211.927200 C122.591431,209.256409 133.730484,206.578522 144.873276,203.916275 C167.635834,198.477798 190.414230,193.104797 213.158051,187.589172 C223.889023,184.986755 227.391357,178.076309 223.526886,167.697327 C222.311401,164.432877 221.103683,161.165543 219.890396,157.900253 C211.571442,135.511597 203.308426,113.101898 194.907166,90.744156 C191.096924,80.604187 183.533020,76.111809 173.913055,78.411041 C131.441177,88.562103 88.991089,98.804741 46.550823,109.087288 C37.248386,111.341118 32.113770,118.540466 33.264870,127.946342 C36.740562,156.346939 40.338593,184.732941 44.007217,213.109329 C45.064003,221.283447 51.753639,226.040512 59.755619,224.198776 C76.744370,220.288666 93.671829,216.112244 111.450684,211.927200 M57.556015,78.054482 C56.791679,70.262772 60.467484,64.246140 65.468010,58.887310 C74.669067,49.026947 86.120102,42.601543 98.917061,38.999252 C109.226662,36.097153 119.879753,34.415283 130.866837,32.089054 C131.596817,27.993505 129.554764,24.187971 125.704407,21.829632 C121.801834,19.439310 117.515213,17.246452 113.103943,16.190416 C93.743797,11.555695 75.195885,15.273077 57.188301,22.714025 C47.707584,26.631571 39.218620,32.055294 32.676617,40.145767 C25.738338,48.726307 26.368380,60.393349 40.634804,62.365780 C43.914368,75.814720 47.200569,89.290894 50.557632,103.057640 C58.595501,101.114426 66.246330,99.264786 73.897156,97.415146 C74.101410,96.939491 74.305656,96.463829 74.509903,95.988174 C73.156914,95.040855 71.931366,93.670708 70.429298,93.217949 C63.156544,91.025818 58.888988,86.332863 57.556015,78.054482 M147.401505,79.886276 C152.167099,78.700241 156.932693,77.514206 161.908569,76.275833 C161.547012,75.017502 161.356308,74.242767 161.102463,73.489311 C159.884460,69.873940 159.730331,67.139153 163.566360,64.275879 C168.407761,60.662178 168.084198,53.183804 162.994247,48.957314 C159.405151,45.977051 154.955627,43.230831 150.480545,42.250576 C122.552879,36.133118 97.035431,42.058693 74.476410,59.518181 C70.455017,62.630520 67.200890,67.354576 64.955093,71.994026 C61.660606,78.799873 65.682846,85.728668 73.047935,86.912552 C75.810509,87.356613 76.644554,88.643387 77.048004,90.988884 C77.347603,92.730652 77.893974,94.429977 78.400185,96.422836 C101.433296,90.867218 124.004860,85.422920 147.401505,79.886276 M192.626633,199.150055 C188.877029,200.105652 185.127426,201.061249 181.000687,202.112961 C182.327240,203.735123 183.257065,204.887512 184.203033,206.026474 C191.982544,215.393433 191.993271,215.425262 203.775803,211.879288 C204.866180,211.551163 206.341248,210.630249 206.592850,209.701523 C207.862732,205.013794 208.786392,200.232285 209.928772,195.041763 C203.998138,196.486481 198.724106,197.771240 192.626633,199.150055 M79.129478,241.511551 C83.314255,240.624146 87.514130,239.799286 91.670959,238.796097 C92.493317,238.597626 93.624313,237.835663 93.807053,237.126038 C95.063309,232.247818 96.105255,227.314423 97.298401,222.034927 C87.260384,224.478867 78.056915,226.719620 68.254982,229.106064 C72.075546,233.545471 75.310966,237.304962 79.129478,241.511551 M223.394623,118.061981 C226.941833,114.151108 227.058502,106.269447 223.644653,101.168312 C220.779922,96.887672 215.735733,96.739250 205.613312,100.778137 C208.153976,107.519135 210.696365,114.264671 213.350128,121.305733 C216.805145,120.297882 219.801193,119.423912 223.394623,118.061981 z"/>
  <path fill="#0C0C0B" opacity="1.000000" stroke="none" d=" M111.037552,211.986115 C93.671829,216.112244 76.744370,220.288666 59.755619,224.198776 C51.753639,226.040512 45.064003,221.283447 44.007217,213.109329 C40.338593,184.732941 36.740562,156.346939 33.264870,127.946342 C32.113770,118.540466 37.248386,111.341118 46.550823,109.087288 C88.991089,98.804741 131.441177,88.562103 173.913055,78.411041 C183.533020,76.111809 191.096924,80.604187 194.907166,90.744156 C203.308426,113.101898 211.571442,135.511597 219.890396,157.900253 C221.103683,161.165543 222.311401,164.432877 223.526886,167.697327 C227.391357,178.076309 223.889023,184.986755 213.158051,187.589172 C190.414230,193.104797 167.635834,198.477798 144.873276,203.916275 C133.730484,206.578522 122.591431,209.256409 111.037552,211.986115 M195.475174,107.217300 C193.458862,101.759697 191.576828,96.247612 189.390259,90.859100 C186.981400,84.922783 181.422806,81.880989 175.278275,83.341759 C132.896317,93.417412 90.524551,103.536964 48.185036,113.789131 C40.145073,115.735931 36.943356,121.948074 38.975208,131.082809 C40.563370,142.783524 42.151527,154.484222 43.640797,167.065369 C45.088333,178.765305 46.535870,190.465225 47.948029,202.986145 C48.089680,204.308624 48.164524,205.642273 48.383331,206.951859 C50.511414,219.688416 52.508125,221.018021 65.201012,217.958969 C90.565788,211.845947 115.925583,205.712051 141.278046,199.548172 C163.545517,194.134323 185.800156,188.667725 208.853790,183.185699 C209.832733,183.016083 210.830338,182.917435 211.787674,182.665695 C219.648849,180.598465 221.527924,177.036469 218.676041,169.531494 C215.794846,161.949356 212.860794,154.387329 209.876923,146.108978 C205.107697,133.410645 200.338455,120.712326 195.475174,107.217300 z"/>
  <path fill="#100B0A" opacity="1.000000" stroke="none" d=" M57.622177,78.447273 C58.888988,86.332863 63.156544,91.025818 70.429298,93.217949 C71.931366,93.670708 73.156914,95.040855 74.509903,95.988174 C74.305656,96.463829 74.101410,96.939491 73.897156,97.415146 C66.246330,99.264786 58.595501,101.114426 50.557632,103.057640 C47.200569,89.290894 43.914368,75.814720 40.634804,62.365780 C26.368380,60.393349 25.738338,48.726307 32.676617,40.145767 C39.218620,32.055294 47.707584,26.631571 57.188301,22.714025 C75.195885,15.273077 93.743797,11.555695 113.103943,16.190416 C117.515213,17.246452 121.801834,19.439310 125.704407,21.829632 C129.554764,24.187971 131.596817,27.993505 130.866837,32.089054 C119.879753,34.415283 109.226662,36.097153 98.917061,38.999252 C86.120102,42.601543 74.669067,49.026947 65.468010,58.887310 C60.467484,64.246140 56.791679,70.262772 57.622177,78.447273 M43.262310,57.819141 C44.216702,59.707447 45.521084,61.500626 46.064671,63.500587 C48.371292,71.987114 50.381180,80.554008 52.657394,89.049225 C53.368000,91.701302 54.575111,94.220337 55.877811,97.650414 C57.416698,95.495056 58.296051,94.263435 59.281631,92.883034 C52.292946,84.981728 50.633690,76.081726 54.603184,66.466637 C56.102489,62.834946 58.568993,59.602551 61.143784,55.724327 C78.064415,37.360691 100.815010,32.143166 124.396828,27.512331 C120.456078,24.784828 116.490913,22.436718 112.207253,21.143841 C101.569687,17.933245 90.753548,18.926390 80.079491,21.122715 C64.922157,24.241533 50.341045,28.827217 39.280144,40.520081 C37.052170,42.875343 35.188816,45.793274 33.911087,48.774799 C32.297588,52.539833 34.150181,55.231243 37.984421,56.385094 C39.563698,56.860348 41.250648,56.977821 43.262310,57.819141 z"/>
  <path fill="#0F0C09" opacity="1.000000" stroke="none" d="M 146.989 79.932 C 124.005 85.423 101.433 90.867 78.4 96.423 C 77.894 94.43 77.348 92.731 77.048 90.989 C 76.645 88.643 75.811 87.357 73.048 86.913 C 65.683 85.729 61.661 78.8 64.955 71.994 C 67.201 67.355 70.455 62.631 74.476 59.518 C 97.035 42.059 122.553 36.133 150.481 42.251 C 154.956 43.231 159.405 45.977 162.994 48.957 C 168.084 53.184 168.408 60.662 163.566 64.276 C 159.73 67.139 159.884 69.874 161.102 73.489 C 161.356 74.243 161.547 75.018 161.909 76.276 C 156.933 77.514 152.167 78.7 146.989 79.932 M 86.718 57.119 C 81.274 62.129 75.261 66.666 70.578 72.308 C 67.197 76.383 69.216 80.809 74.095 81.878 C 78.26 82.79 81.304 84.352 81.605 90.301 C 106.532 84.399 130.825 78.647 155.638 72.772 C 153.436 67.405 155.071 63.918 159.359 60.884 C 162.398 58.733 162.11 54.157 158.584 51.964 C 154.447 49.391 149.787 46.909 145.069 46.148 C 124.679 42.86 104.268 59.611 86.718 57.119 Z"/>
  <path fill="#0E0C0E" opacity="1.000000" stroke="none" d=" M193.038361,199.103027 C198.724106,197.771240 203.998138,196.486481 209.928772,195.041763 C208.786392,200.232285 207.862732,205.013794 206.592850,209.701523 C206.341248,210.630249 204.866180,211.551163 203.775803,211.879288 C191.993271,215.425262 191.982544,215.393433 184.203033,206.026474 C183.257065,204.887512 182.327240,203.735123 181.000687,202.112961 C185.127426,201.061249 188.877029,200.105652 193.038361,199.103027 M193.204330,204.381165 C189.414383,205.709457 191.815552,208.061401 193.192383,208.281525 C195.628372,208.670990 198.469360,208.227112 200.745224,207.229446 C201.954956,206.699158 202.334671,204.275467 203.464005,201.926620 C199.432724,202.872757 196.693741,203.515610 193.204330,204.381165 z"/>
  <path fill="#0E0C0E" opacity="1.000000" stroke="none" d=" M78.837936,241.287994 C75.310966,237.304962 72.075546,233.545471 68.254982,229.106064 C78.056915,226.719620 87.260384,224.478867 97.298401,222.034927 C96.105255,227.314423 95.063309,232.247818 93.807053,237.126038 C93.624313,237.835663 92.493317,238.597626 91.670959,238.796097 C87.514130,239.799286 83.314255,240.624146 78.837936,241.287994 M87.840401,229.516464 C84.683182,230.343521 81.525963,231.170593 78.230515,232.033859 C80.699165,235.826859 86.809586,236.586105 88.985397,233.473007 C89.593903,232.602402 88.758194,230.722366 87.840401,229.516464 z"/>
  <path fill="#0C0D0A" opacity="1.000000" stroke="none" d=" M223.095917,118.305962 C219.801193,119.423912 216.805145,120.297882 213.350128,121.305733 C210.696365,114.264671 208.153976,107.519135 205.613312,100.778137 C215.735733,96.739250 220.779922,96.887672 223.644653,101.168312 C227.058502,106.269447 226.941833,114.151108 223.095917,118.305962 M220.983185,109.418419 C218.993515,101.878296 218.336212,101.479256 212.363846,104.579475 C213.149399,106.305016 213.944061,108.050545 214.868866,110.582321 C215.890884,111.967369 216.912903,113.352409 217.934921,114.737450 C218.943680,113.235580 219.952438,111.733711 220.983185,109.418419 z"/>
  <path fill="#3D5FAB" opacity="1.000000" stroke="none" d="M 47.754 202.191 C 47.7 199.637 47.066 196.894 46.822 193.934 C 46.59 191.111 46.18 188.171 45.844 185.316 C 45.44 181.886 45.065 178.55 44.687 175.594 C 44.206 171.832 43.739 168.695 43.575 166.736 C 43.587 164.023 59.943 164.941 67.424 163.575 C 97.587 158.069 127.628 151.865 157.849 146.715 C 175.092 143.776 192.719 144.311 210.084 146.558 C 212.995 154.128 215.795 161.949 218.676 169.531 C 221.528 177.036 219.649 180.598 211.788 182.666 C 210.83 182.917 209.885 183.118 208.067 183.236 C 193.458 182.857 179.459 180.894 165.902 182.442 C 142.932 185.064 120.206 189.83 97.381 193.713 C 80.912 196.514 62.266 199.199 47.754 202.191 Z"/>
  <path fill="#108041" opacity="1.000000" stroke="none" d="M 210.061 146.541 C 192.733 144.648 175.092 143.776 157.849 146.715 C 127.628 151.865 97.587 158.069 67.424 163.575 C 59.943 164.941 51.652 165.859 43.592 166.707 C 41.807 151.332 40.529 142.856 38.721 130.733 C 59.908 127.401 81.483 125.141 102.018 121.35 C 133.04 115.622 163.945 107.788 195.789 107.929 C 200.558 120.627 205.256 133.489 210.061 146.541 Z"/>
  <path fill="#F9CE09" opacity="1.000000" stroke="none" d="M 195.648 107.927 C 163.851 108.184 133.04 115.622 102.018 121.35 C 81.483 125.141 59.918 127.861 38.758 130.773 C 36.212 122.491 40.673 115.397 48.713 113.45 C 91.053 103.198 132.896 93.417 175.278 83.342 C 181.423 81.881 186.981 84.923 189.39 90.859 C 191.577 96.248 193.585 102.071 195.648 107.927 Z"/>
  <path fill="#722A84" opacity="1.000000" stroke="none" d="M 47.807 202.175 C 64.252 198.671 80.753 196.113 97.222 193.312 C 120.047 189.429 142.932 185.064 165.902 182.442 C 179.459 180.894 194.634 182.807 208.847 183.206 C 187.028 188.72 163.546 194.134 141.278 199.548 C 115.926 205.712 90.566 211.846 65.201 217.959 C 52.508 221.018 50.511 219.688 48.383 206.952 C 48.165 205.642 47.931 203.908 47.807 202.175 Z"/>
  <path fill="#E21E23" opacity="1.000000" stroke="none" d="M 42.697 57.496 C 41.035 57.215 39.324 57.096 37.723 56.619 C 33.835 55.457 31.955 52.749 33.592 48.961 C 34.888 45.96 36.778 43.024 39.036 40.654 C 50.253 28.889 65.011 24.15 80.381 21.011 C 91.205 18.802 102.204 17.927 112.99 21.157 C 117.335 22.457 121.356 24.82 125.352 27.565 C 101.439 32.224 78.445 37.578 60.598 56.245 C 54.197 56.823 48.409 57.107 42.697 57.496 Z" style=""/>
  <path fill="#EA801D" opacity="1.000000" stroke="none" d="M 42.715 57.433 C 48.507 56.763 54.499 56.375 60.917 56.033 C 59.194 59.506 56.57 62.75 54.976 66.393 C 50.753 76.045 52.519 84.978 59.951 92.909 C 58.903 94.295 57.532 95.606 55.895 97.769 C 54.509 94.328 53.449 91.807 52.691 89.144 C 50.271 80.618 48.347 71.935 45.895 63.417 C 45.316 61.41 43.929 59.611 42.715 57.433 Z" style=""/>
  <path fill="#F4861F" opacity="1.000000" stroke="none" d="M 86.889 56.978 C 105.272 46.873 124.679 42.86 145.069 46.148 C 149.787 46.909 154.447 49.391 158.584 51.964 C 162.11 54.157 162.398 58.733 159.359 60.884 C 155.071 63.918 153.436 67.405 155.638 72.772 C 130.825 78.647 106.532 84.399 81.605 90.301 C 81.304 84.352 78.26 82.79 74.095 81.878 C 69.216 80.809 67.197 76.383 70.578 72.308 C 75.261 66.666 81.12 62.158 86.889 56.978 Z"/>
  <path fill="#6B277B" opacity="1.000000" stroke="none" d="M 193.518 204.136 C 196.632 203.382 199.433 202.873 203.464 201.927 C 202.335 204.275 201.955 206.699 200.745 207.229 C 198.469 208.227 195.628 208.671 193.192 208.282 C 192.343 208.146 190.877 207.177 191.031 206.133 C 191.126 205.485 191.923 204.687 193.518 204.136 Z"/>
  <path fill="#6D277D" opacity="1.000000" stroke="none" d="M 88.229 229.362 C 88.774 230.673 89.616 232.724 89.007 233.595 C 86.832 236.708 80.561 235.827 78.092 232.034 C 81.388 231.171 84.699 230.295 88.229 229.362 Z"/>
  <path fill="#E8C30A" opacity="1.000000" stroke="none" d="M 214.388 109.856 C 213.593 108.111 213.149 106.305 212.364 104.579 C 218.272 101.344 219.565 102.009 221.105 109.945 C 218.874 110.203 216.169 109.994 214.388 109.856 Z"/>
  <path fill="#067C3F" opacity="1.000000" stroke="none" d="M 214.37 109.881 C 216.086 109.626 218.74 109.86 220.96 110.009 C 220.39 111.522 218.944 113.236 217.935 114.737 C 216.913 113.352 215.457 111.659 214.37 109.881 Z"/>
</svg>